<svg width="21" height="20" viewBox="0 0 21 20" fill="none" xmlns="http://www.w3.org/2000/svg">
<path d="M14.086 3.58592C14.2705 3.3949 14.4912 3.24253 14.7352 3.13772C14.9792 3.0329 15.2416 2.97772 15.5072 2.97542C15.7728 2.97311 16.0361 3.02371 16.2819 3.12427C16.5277 3.22484 16.751 3.37334 16.9388 3.56113C17.1266 3.74891 17.2751 3.97222 17.3756 4.21801C17.4762 4.4638 17.5268 4.72716 17.5245 4.99272C17.5222 5.25828 17.467 5.52072 17.3622 5.76473C17.2574 6.00874 17.105 6.22942 16.914 6.41392L16.121 7.20692L13.293 4.37892L14.086 3.58592ZM11.879 5.79292L3.5 14.1719V16.9999H6.328L14.708 8.62092L11.878 5.79292H11.879Z" fill="#002A52"/>
</svg>
