<svg width="30" height="30" viewBox="0 0 30 30" fill="none" xmlns="http://www.w3.org/2000/svg">
<path d="M16.0606 3.4395C15.7793 3.15829 15.3979 3.00032 15.0001 3.00032C14.6024 3.00032 14.2209 3.15829 13.9396 3.4395L3.43962 13.9395C3.16639 14.2224 3.01519 14.6013 3.01861 14.9946C3.02203 15.3879 3.17978 15.7641 3.45789 16.0422C3.73601 16.3203 4.11223 16.4781 4.50552 16.4815C4.89882 16.4849 5.27772 16.3337 5.56062 16.0605L6.00012 15.621V25.5C6.00012 25.8978 6.15816 26.2794 6.43946 26.5607C6.72077 26.842 7.1023 27 7.50012 27H10.5001C10.8979 27 11.2795 26.842 11.5608 26.5607C11.8421 26.2794 12.0001 25.8978 12.0001 25.5V22.5C12.0001 22.1022 12.1582 21.7206 12.4395 21.4393C12.7208 21.158 13.1023 21 13.5001 21H16.5001C16.8979 21 17.2795 21.158 17.5608 21.4393C17.8421 21.7206 18.0001 22.1022 18.0001 22.5V25.5C18.0001 25.8978 18.1582 26.2794 18.4395 26.5607C18.7208 26.842 19.1023 27 19.5001 27H22.5001C22.8979 27 23.2795 26.842 23.5608 26.5607C23.8421 26.2794 24.0001 25.8978 24.0001 25.5V15.621L24.4396 16.0605C24.7225 16.3337 25.1014 16.4849 25.4947 16.4815C25.888 16.4781 26.2642 16.3203 26.5424 16.0422C26.8205 15.7641 26.9782 15.3879 26.9816 14.9946C26.9851 14.6013 26.8339 14.2224 26.5606 13.9395L16.0606 3.4395Z" fill="#212F3D"/>
</svg>
