<svg width="100" height="100" viewBox="0 0 100 100" fill="none" xmlns="http://www.w3.org/2000/svg">
<mask id="path-1-inside-1_201_2986" fill="white">
<path d="M0 0H100V100H0V0Z"/>
</mask>
<path d="M0 0H100V100H0V0Z" fill="#002A52"/>
<path d="M3 100V0H-3V100H3Z" fill="#D9D9D9" mask="url(#path-1-inside-1_201_2986)"/>
<path fill-rule="evenodd" clip-rule="evenodd" d="M50 47.5C51.9891 47.5 53.8968 46.7098 55.3033 45.3033C56.7098 43.8968 57.5 41.9891 57.5 40C57.5 38.0109 56.7098 36.1032 55.3033 34.6967C53.8968 33.2902 51.9891 32.5 50 32.5C48.0109 32.5 46.1032 33.2902 44.6967 34.6967C43.2902 36.1032 42.5 38.0109 42.5 40C42.5 41.9891 43.2902 43.8968 44.6967 45.3033C46.1032 46.7098 48.0109 47.5 50 47.5V47.5ZM32.5 70C32.5 67.7019 32.9527 65.4262 33.8321 63.303C34.7116 61.1798 36.0006 59.2507 37.6256 57.6256C39.2507 56.0006 41.1798 54.7116 43.303 53.8321C45.4262 52.9527 47.7019 52.5 50 52.5C52.2981 52.5 54.5738 52.9527 56.697 53.8321C58.8202 54.7116 60.7493 56.0006 62.3744 57.6256C63.9994 59.2507 65.2884 61.1798 66.1679 63.303C67.0474 65.4262 67.5 67.7019 67.5 70H32.5Z" fill="white"/>
</svg>
