<svg width="30" height="30" viewBox="0 0 30 30" fill="none" xmlns="http://www.w3.org/2000/svg">
<path d="M12 24.75C12 25.3467 11.7629 25.919 11.341 26.341C10.919 26.7629 10.3467 27 9.75 27C9.15326 27 8.58097 26.7629 8.15901 26.341C7.73705 25.919 7.5 25.3467 7.5 24.75C7.5 24.1533 7.73705 23.581 8.15901 23.159C8.58097 22.7371 9.15326 22.5 9.75 22.5C10.3467 22.5 10.919 22.7371 11.341 23.159C11.7629 23.581 12 24.1533 12 24.75ZM22.5 24.75C22.5 25.3467 22.2629 25.919 21.841 26.341C21.419 26.7629 20.8467 27 20.25 27C19.6533 27 19.081 26.7629 18.659 26.341C18.2371 25.919 18 25.3467 18 24.75C18 24.1533 18.2371 23.581 18.659 23.159C19.081 22.7371 19.6533 22.5 20.25 22.5C20.8467 22.5 21.419 22.7371 21.841 23.159C22.2629 23.581 22.5 24.1533 22.5 24.75Z" fill="white"/>
<path d="M4.5 6C4.10218 6 3.72064 6.15804 3.43934 6.43934C3.15804 6.72064 3 7.10218 3 7.5V22.5C3 22.8978 3.15804 23.2794 3.43934 23.5607C3.72064 23.842 4.10218 24 4.5 24H6.075C6.24714 23.1523 6.70705 22.3901 7.37681 21.8427C8.04657 21.2953 8.88498 20.9962 9.75 20.9962C10.615 20.9962 11.4534 21.2953 12.1232 21.8427C12.793 22.3901 13.2529 23.1523 13.425 24H15C15.3978 24 15.7794 23.842 16.0607 23.5607C16.342 23.2794 16.5 22.8978 16.5 22.5V7.5C16.5 7.10218 16.342 6.72064 16.0607 6.43934C15.7794 6.15804 15.3978 6 15 6H4.5ZM21 10.5C20.6022 10.5 20.2206 10.658 19.9393 10.9393C19.658 11.2206 19.5 11.6022 19.5 12V21.075C19.9826 20.9764 20.4799 20.9739 20.9635 21.0675C21.4471 21.1612 21.9075 21.3492 22.3185 21.6208C22.7294 21.8924 23.0828 22.2423 23.3584 22.6506C23.6341 23.0588 23.8266 23.5173 23.925 24H25.5C25.8978 24 26.2794 23.842 26.5607 23.5607C26.842 23.2794 27 22.8978 27 22.5V15C26.9999 14.6022 26.8418 14.2207 26.5605 13.9395L23.5605 10.9395C23.2793 10.6582 22.8978 10.5001 22.5 10.5H21Z" fill="white"/>
</svg>
