<svg width="30" height="30" viewBox="0 0 30 30" fill="none" xmlns="http://www.w3.org/2000/svg">
<path d="M13.5 9C13.5 10.1935 13.0259 11.3381 12.182 12.182C11.3381 13.0259 10.1935 13.5 9 13.5C7.80653 13.5 6.66193 13.0259 5.81802 12.182C4.97411 11.3381 4.5 10.1935 4.5 9C4.5 7.80653 4.97411 6.66193 5.81802 5.81802C6.66193 4.97411 7.80653 4.5 9 4.5C10.1935 4.5 11.3381 4.97411 12.182 5.81802C13.0259 6.66193 13.5 7.80653 13.5 9V9ZM25.5 9C25.5 9.59095 25.3836 10.1761 25.1575 10.7221C24.9313 11.268 24.5998 11.7641 24.182 12.182C23.7641 12.5998 23.268 12.9313 22.7221 13.1575C22.1761 13.3836 21.5909 13.5 21 13.5C20.4091 13.5 19.8239 13.3836 19.2779 13.1575C18.732 12.9313 18.2359 12.5998 17.818 12.182C17.4002 11.7641 17.0687 11.268 16.8425 10.7221C16.6164 10.1761 16.5 9.59095 16.5 9C16.5 7.80653 16.9741 6.66193 17.818 5.81802C18.6619 4.97411 19.8065 4.5 21 4.5C22.1935 4.5 23.3381 4.97411 24.182 5.81802C25.0259 6.66193 25.5 7.80653 25.5 9V9ZM19.395 25.5C19.464 25.0095 19.5 24.51 19.5 24C19.5035 21.6433 18.7106 19.3545 17.25 17.505C18.3901 16.8467 19.6834 16.5002 21 16.5002C22.3165 16.5002 23.6098 16.8467 24.7499 17.505C25.8901 18.1632 26.8368 19.1099 27.4951 20.2501C28.1534 21.3902 28.5 22.6835 28.5 24V25.5H19.395ZM9 16.5C10.9891 16.5 12.8968 17.2902 14.3033 18.6967C15.7098 20.1032 16.5 22.0109 16.5 24V25.5H1.5V24C1.5 22.0109 2.29018 20.1032 3.6967 18.6967C5.10322 17.2902 7.01088 16.5 9 16.5V16.5Z" fill="white"/>
</svg>
