<svg width="30" height="30" viewBox="0 0 30 30" fill="none" xmlns="http://www.w3.org/2000/svg">
<path fill-rule="evenodd" clip-rule="evenodd" d="M27 4.5C26.9999 4.24441 26.9344 3.9931 26.8099 3.76991C26.6853 3.54672 26.5058 3.35905 26.2884 3.22471C26.071 3.09037 25.8228 3.01382 25.5675 3.00232C25.3122 2.99082 25.0581 3.04475 24.8295 3.159L13.1445 9H7.5C6.30653 9 5.16193 9.47411 4.31802 10.318C3.47411 11.1619 3 12.3065 3 13.5C3 14.6935 3.47411 15.8381 4.31802 16.682C5.16193 17.5259 6.30653 18 7.5 18H7.92L10.5765 25.974C10.676 26.2728 10.8671 26.5327 11.1226 26.7169C11.3781 26.901 11.6851 27.0001 12 27H13.5C13.8978 27 14.2794 26.842 14.5607 26.5607C14.842 26.2794 15 25.8978 15 25.5V18.927L24.8295 23.841C25.0581 23.9552 25.3122 24.0092 25.5675 23.9977C25.8228 23.9862 26.071 23.9096 26.2884 23.7753C26.5058 23.641 26.6853 23.4533 26.8099 23.2301C26.9344 23.0069 26.9999 22.7556 27 22.5V4.5Z" fill="#18181B"/>
</svg>
