<svg width="30" height="30" viewBox="0 0 30 30" fill="none" xmlns="http://www.w3.org/2000/svg">
<path d="M16.0604 3.4395C15.7791 3.15829 15.3976 3.00032 14.9999 3.00032C14.6021 3.00032 14.2207 3.15829 13.9394 3.4395L3.43938 13.9395C3.16614 14.2224 3.01495 14.6013 3.01837 14.9946C3.02178 15.3879 3.17954 15.7641 3.45765 16.0422C3.73576 16.3203 4.11198 16.4781 4.50528 16.4815C4.89857 16.4849 5.27748 16.3337 5.56038 16.0605L5.99988 15.621V25.5C5.99988 25.8978 6.15791 26.2794 6.43922 26.5607C6.72052 26.842 7.10205 27 7.49988 27H10.4999C10.8977 27 11.2792 26.842 11.5605 26.5607C11.8418 26.2794 11.9999 25.8978 11.9999 25.5V22.5C11.9999 22.1022 12.1579 21.7206 12.4392 21.4393C12.7205 21.158 13.1021 21 13.4999 21H16.4999C16.8977 21 17.2792 21.158 17.5605 21.4393C17.8418 21.7206 17.9999 22.1022 17.9999 22.5V25.5C17.9999 25.8978 18.1579 26.2794 18.4392 26.5607C18.7205 26.842 19.1021 27 19.4999 27H22.4999C22.8977 27 23.2792 26.842 23.5605 26.5607C23.8418 26.2794 23.9999 25.8978 23.9999 25.5V15.621L24.4394 16.0605C24.7223 16.3337 25.1012 16.4849 25.4945 16.4815C25.8878 16.4781 26.264 16.3203 26.5421 16.0422C26.8202 15.7641 26.978 15.3879 26.9814 14.9946C26.9848 14.6013 26.8336 14.2224 26.5604 13.9395L16.0604 3.4395Z" fill="#F4F6F7"/>
</svg>
