<svg width="30" height="30" viewBox="0 0 30 30" fill="none" xmlns="http://www.w3.org/2000/svg">
<path fill-rule="evenodd" clip-rule="evenodd" d="M27 4.50005C26.9999 4.24447 26.9344 3.99315 26.8099 3.76996C26.6853 3.54677 26.5058 3.3591 26.2884 3.22476C26.071 3.09042 25.8228 3.01387 25.5675 3.00237C25.3122 2.99087 25.0581 3.04481 24.8295 3.15905L13.1445 9.00005H7.5C6.30653 9.00005 5.16193 9.47416 4.31802 10.3181C3.47411 11.162 3 12.3066 3 13.5001C3 14.6935 3.47411 15.8381 4.31802 16.682C5.16193 17.5259 6.30653 18.0001 7.5 18.0001H7.92L10.5765 25.9741C10.676 26.2729 10.8671 26.5328 11.1226 26.7169C11.3781 26.9011 11.6851 27.0001 12 27.0001H13.5C13.8978 27.0001 14.2794 26.842 14.5607 26.5607C14.842 26.2794 15 25.8979 15 25.5001V18.9271L24.8295 23.8411C25.0581 23.9553 25.3122 24.0092 25.5675 23.9977C25.8228 23.9862 26.071 23.9097 26.2884 23.7753C26.5058 23.641 26.6853 23.4533 26.8099 23.2301C26.9344 23.007 26.9999 22.7556 27 22.5001V4.50005Z" fill="white"/>
</svg>
