<svg width="32" height="30" viewBox="0 0 32 30" fill="none" xmlns="http://www.w3.org/2000/svg">
<path d="M3.5 10L2.08579 8.58579L0.671573 10L2.08579 11.4142L3.5 10ZM16 12C17.1046 12 18 11.1046 18 10C18 8.89543 17.1046 8 16 8V12ZM7.08579 3.58579L2.08579 8.58579L4.91421 11.4142L9.91421 6.41421L7.08579 3.58579ZM2.08579 11.4142L7.08579 16.4142L9.91421 13.5858L4.91421 8.58579L2.08579 11.4142ZM3.5 12H16V8H3.5V12Z" fill="#33363F"/>
<path d="M28.5 20L29.9142 18.5858L31.3284 20L29.9142 21.4142L28.5 20ZM4.75 22C3.64543 22 2.75 21.1046 2.75 20C2.75 18.8954 3.64543 18 4.75 18L4.75 22ZM24.9142 13.5858L29.9142 18.5858L27.0858 21.4142L22.0858 16.4142L24.9142 13.5858ZM29.9142 21.4142L24.9142 26.4142L22.0858 23.5858L27.0858 18.5858L29.9142 21.4142ZM28.5 22L4.75 22L4.75 18L28.5 18L28.5 22Z" fill="#33363F"/>
</svg>
