<svg width="30" height="30" viewBox="0 0 30 30" fill="none" xmlns="http://www.w3.org/2000/svg">
<path fill-rule="evenodd" clip-rule="evenodd" d="M6 6C6 5.20435 6.31607 4.44129 6.87868 3.87868C7.44129 3.31607 8.20435 3 9 3H21C21.7956 3 22.5587 3.31607 23.1213 3.87868C23.6839 4.44129 24 5.20435 24 6V24C24.3978 24 24.7794 24.158 25.0607 24.4393C25.342 24.7206 25.5 25.1022 25.5 25.5C25.5 25.8978 25.342 26.2794 25.0607 26.5607C24.7794 26.842 24.3978 27 24 27H19.5C19.1022 27 18.7206 26.842 18.4393 26.5607C18.158 26.2794 18 25.8978 18 25.5V22.5C18 22.1022 17.842 21.7206 17.5607 21.4393C17.2794 21.158 16.8978 21 16.5 21H13.5C13.1022 21 12.7206 21.158 12.4393 21.4393C12.158 21.7206 12 22.1022 12 22.5V25.5C12 25.8978 11.842 26.2794 11.5607 26.5607C11.2794 26.842 10.8978 27 10.5 27H6C5.60218 27 5.22064 26.842 4.93934 26.5607C4.65804 26.2794 4.5 25.8978 4.5 25.5C4.5 25.1022 4.65804 24.7206 4.93934 24.4393C5.22064 24.158 5.60218 24 6 24V6ZM10.5 7.5H13.5V10.5H10.5V7.5ZM13.5 13.5H10.5V16.5H13.5V13.5ZM16.5 7.5H19.5V10.5H16.5V7.5ZM19.5 13.5H16.5V16.5H19.5V13.5Z" fill="#18181B"/>
</svg>
